<svg height="472pt" viewBox="0 -104 472 472" width="472pt" xmlns="http://www.w3.org/2000/svg"><path d="m304 40-8 8h-120v-8c0-17.671875 14.328125-32 32-32h64c17.671875 0 32 14.328125 32 32zm0 0" fill="#99d8aa"/><path d="m180.441406 24c-2.878906 4.84375-4.414062 10.367188-4.441406 16h128c-.027344-5.632812-1.5625-11.15625-4.441406-16zm0 0" fill="#8dc79d"/><path d="m32 40h128v32h-128zm0 0" fill="#6b9777"/><path d="m136 40h24v32h-24zm0 0" fill="#5e8569"/><path d="m32 40h24v32h-24zm0 0" fill="#5e8569"/><path d="m152 40h176v72h-176zm0 0" fill="#85bc94"/><path d="m152 88h176v16h-176zm0 0" fill="#7aac88"/><path d="m8 32h32v48h-32zm0 0" fill="#85bc94"/><g fill="#8dc79d"><path d="m232 64h16v16h-16zm0 0"/><path d="m264 64h16v16h-16zm0 0"/><path d="m200 64h16v16h-16zm0 0"/><path d="m296 64h32v16h-32zm0 0"/></g><path d="m408 152v8h-304v-8l12.351562-37.054688c2.175782-6.539062 8.292969-10.945312 15.183594-10.945312h248.929688c6.894531-.007812 13.019531 4.402344 15.199218 10.945312zm0 0" fill="#6b9777"/><path d="m456 200v32l-64 24h-296l-80-64 18.128906-30.207031c3.640625-6.078125 10.203125-9.796875 17.285156-9.792969h372.859376c9.390624 0 17.730468 6.007812 20.703124 14.921875zm0 0" fill="#5e8569"/><path d="m232 224c0 17.671875-14.328125 32-32 32s-32-14.328125-32-32 14.328125-32 32-32 32 14.328125 32 32zm0 0" fill="#cdcdcd"/><path d="m200 264c-22.089844 0-40-17.910156-40-40s17.910156-40 40-40 40 17.910156 40 40c-.027344 22.082031-17.917969 39.972656-40 40zm0-64c-13.253906 0-24 10.746094-24 24s10.746094 24 24 24 24-10.746094 24-24-10.746094-24-24-24zm0 0" fill="#9c9c9c"/><path d="m200 236c-6.628906 0-12-5.371094-12-12s5.371094-12 12-12 12 5.371094 12 12-5.371094 12-12 12zm0 0" fill="#d9d9d9"/><path d="m328 224c0 17.671875-14.328125 32-32 32s-32-14.328125-32-32 14.328125-32 32-32 32 14.328125 32 32zm0 0" fill="#cdcdcd"/><path d="m296 236c-6.628906 0-12-5.371094-12-12s5.371094-12 12-12 12 5.371094 12 12-5.371094 12-12 12zm0 0" fill="#d9d9d9"/><path d="m416 224c0 17.671875-14.328125 32-32 32s-32-14.328125-32-32 14.328125-32 32-32 32 14.328125 32 32zm0 0" fill="#cdcdcd"/><path d="m384 264c-22.089844 0-40-17.910156-40-40s17.910156-40 40-40 40 17.910156 40 40c-.027344 22.082031-17.917969 39.972656-40 40zm0-64c-13.253906 0-24 10.746094-24 24s10.746094 24 24 24 24-10.746094 24-24-10.746094-24-24-24zm0 0" fill="#9c9c9c"/><path d="m296 264c-22.089844 0-40-17.910156-40-40s17.910156-40 40-40 40 17.910156 40 40c-.027344 22.082031-17.917969 39.972656-40 40zm0-64c-13.253906 0-24 10.746094-24 24s10.746094 24 24 24 24-10.746094 24-24-10.746094-24-24-24zm0 0" fill="#9c9c9c"/><path d="m384 236c-6.628906 0-12-5.371094-12-12s5.371094-12 12-12 12 5.371094 12 12-5.371094 12-12 12zm0 0" fill="#d9d9d9"/><path d="m144 224c0 17.671875-14.328125 32-32 32s-32-14.328125-32-32 14.328125-32 32-32 32 14.328125 32 32zm0 0" fill="#cdcdcd"/><path d="m112 264c-22.089844 0-40-17.910156-40-40s17.910156-40 40-40 40 17.910156 40 40c-.027344 22.082031-17.917969 39.972656-40 40zm0-64c-13.253906 0-24 10.746094-24 24s10.746094 24 24 24 24-10.746094 24-24-10.746094-24-24-24zm0 0" fill="#9c9c9c"/><path d="m112 236c-6.628906 0-12-5.371094-12-12s5.371094-12 12-12 12 5.371094 12 12-5.371094 12-12 12zm0 0" fill="#d9d9d9"/><path d="m72 192c0 13.253906-10.746094 24-24 24s-24-10.746094-24-24 10.746094-24 24-24 24 10.746094 24 24zm0 0" fill="#cdcdcd"/><path d="m380.0625 264h-272.476562c-9.355469-.007812-18.414063-3.289062-25.601563-9.273438l-39.105469-32.582031 10.242188-12.289062 39.101562 32.585937c4.3125 3.601563 9.746094 5.582032 15.363282 5.597656h272.476562c1.960938 0 3.910156-.238281 5.808594-.710937l51.914062-14.976563 4.429688 15.375-52.183594 15.042969c-3.257812.828125-6.605469 1.242188-9.96875 1.230469zm0 0" fill="#62666a"/><path d="m47.511719 175.988281.980469-15.96875 392 24.003907-.976563 15.96875zm0 0" fill="#62666a"/><path d="m48 224c-17.671875 0-32-14.328125-32-32s14.328125-32 32-32 32 14.328125 32 32-14.328125 32-32 32zm0-48c-8.835938 0-16 7.164062-16 16s7.164062 16 16 16 16-7.164062 16-16-7.164062-16-16-16zm0 0" fill="#787d82"/><path d="m464 216c0 13.253906-10.746094 24-24 24s-24-10.746094-24-24 10.746094-24 24-24 24 10.746094 24 24zm0 0" fill="#cdcdcd"/><path d="m440 248c-17.671875 0-32-14.328125-32-32s14.328125-32 32-32 32 14.328125 32 32-14.328125 32-32 32zm0-48c-8.835938 0-16 7.164062-16 16s7.164062 16 16 16 16-7.164062 16-16-7.164062-16-16-16zm0 0" fill="#787d82"/><path d="m200 212c-6.628906 0-12 5.371094-12 12s5.371094 12 12 12 12-5.371094 12-12-5.371094-12-12-12zm0 16c-2.210938 0-4-1.789062-4-4s1.789062-4 4-4 4 1.789062 4 4-1.789062 4-4 4zm0 0"/><path d="m112 212c-6.628906 0-12 5.371094-12 12s5.371094 12 12 12 12-5.371094 12-12-5.371094-12-12-12zm0 16c-2.210938 0-4-1.789062-4-4s1.789062-4 4-4 4 1.789062 4 4-1.789062 4-4 4zm0 0"/><path d="m296 212c-6.628906 0-12 5.371094-12 12s5.371094 12 12 12 12-5.371094 12-12-5.371094-12-12-12zm0 16c-2.210938 0-4-1.789062-4-4s1.789062-4 4-4 4 1.789062 4 4-1.789062 4-4 4zm0 0"/><path d="m384 212c-6.628906 0-12 5.371094-12 12s5.371094 12 12 12 12-5.371094 12-12-5.371094-12-12-12zm0 16c-2.210938 0-4-1.789062-4-4s1.789062-4 4-4 4 1.789062 4 4-1.789062 4-4 4zm0 0"/><path d="m8 88h32c4.417969 0 8-3.582031 8-8h96v16h-24c-3.445312 0-6.503906 2.203125-7.59375 5.472656l-14.175781 42.527344h-58.230469c-4.417969 0-8 3.582031-8 8v12.449219c-12 6.871093-18.179688 20.71875-15.277344 34.242187 2.902344 13.519532 14.214844 23.613282 27.980469 24.957032l37.28125 31.0625c7.1875 5.992187 16.242187 9.277343 25.601563 9.289062h272.476562c.800781 0 1.601562-.105469 2.402344-.152344.511718 0 .992187.152344 1.511718.152344 6.632813-.046875 13.148438-1.761719 18.945313-4.992188l38.796875-11.199218c12.722656-.632813 23.84375-8.789063 28.269531-20.734375 4.425781-11.941407 1.308594-25.375-7.933593-34.144531l-14.488282-43.472657c-1.089844-3.253906-4.132812-5.449219-7.566406-5.457031h-26.230469l-14.175781-42.527344c-1.089844-3.269531-4.148438-5.472656-7.59375-5.472656h-56v-56c0-4.417969-3.582031-8-8-8h-16.800781c-3.828125-18.613281-20.199219-31.9765625-39.199219-32h-64c-19 .0234375-35.371094 13.386719-39.199219 32h-120.800781c0-4.417969-3.582031-8-8-8h-32c-4.417969 0-8 3.582031-8 8v48c0 4.417969 3.582031 8 8 8zm40 120c-8.835938.023438-16.019531-7.121094-16.042969-15.957031-.023437-8.835938 7.117188-16.019531 15.953125-16.042969h.449219c8.835937.097656 15.921875 7.34375 15.820313 16.179688-.097657 8.835937-7.34375 15.917968-16.179688 15.820312zm24.175781 17.734375-7.71875-6.398437c4.226563-2.542969 7.8125-6.023438 10.480469-10.175782-1.921875 4.710938-2.917969 9.75-2.9375 14.839844 0 .59375.152344 1.144531.175781 1.734375zm39.824219 22.265625c-13.253906 0-24-10.746094-24-24s10.746094-24 24-24 24 10.746094 24 24-10.746094 24-24 24zm56.207031 0h-24.414062c5.292969-6.882812 8.175781-15.316406 8.207031-24 .058594-18.035156-11.996094-33.859375-29.398438-38.597656-17.398437-4.738282-35.8125 2.792968-44.90625 18.367187 3.445313-8.425781 3.011719-17.9375-1.191406-26.007812l115.40625 7.0625c-18.566406 3.859375-31.886718 20.210937-31.910156 39.175781.03125 8.683594 2.914062 17.117188 8.207031 24zm31.792969 0c-13.253906 0-24-10.746094-24-24s10.746094-24 24-24 24 10.746094 24 24-10.746094 24-24 24zm64.207031 0h-32.414062c7.910156-10.277344 10.277343-23.78125 6.339843-36.140625-3.941406-12.355469-13.6875-21.996094-26.085937-25.804687l63.273437 3.882812c-9.714843 5.773438-16.492187 15.429688-18.617187 26.53125-2.121094 11.101562.609375 22.578125 7.503906 31.53125zm31.792969 0c-13.253906 0-24-10.746094-24-24s10.746094-24 24-24 24 10.746094 24 24-10.746094 24-24 24zm56.207031 0h-24.414062c6.390625-8.28125 9.222656-18.769531 7.871093-29.140625-1.351562-10.375-6.773437-19.785156-15.070312-26.15625l36.101562 2.207031c-15.027343 13.859375-16.976562 36.90625-4.488281 53.089844zm44.960938-4-11.296875 3.265625c-1.316406.273437-2.65625.441406-4 .496094-11.582032-1.121094-20.664063-10.433594-21.503906-22.035157-.835938-11.605468 6.816406-22.125 18.117187-24.898437 11.300781-2.769531 22.953125 3.011719 27.582031 13.6875s.882813 23.132813-8.867187 29.484375zm58.832031-28c0 8.835938-7.164062 16-16 16s-16-7.164062-16-16 7.164062-16 16-16 16 7.164062 16 16zm-48-56h26.230469l8.082031 24.230469c-.617188-.039063-1.199219-.175781-1.824219-.183594l-392-24c-.167969 0-.320312-.046875-.488281-.046875zm-200-144h64c10.167969.011719 19.230469 6.417969 22.632812 16h-109.265624c3.402343-9.582031 12.464843-15.988281 22.632812-16zm-48 56v-24h160v16h-24v16h24v16h-160zm168 40h58.230469l10.671875 32h-281.804688l10.671875-32zm-280-64h96v16h-96zm-32-8h16v32h-16zm0 0"/><path d="m232 64h16v16h-16zm0 0"/><path d="m264 64h16v16h-16zm0 0"/><path d="m200 64h16v16h-16zm0 0"/></svg>